<svg width="1158" height="359" viewBox="0 0 1158 359" fill="none" xmlns="http://www.w3.org/2000/svg">
<g clip-path="url(#clip0_323_87)">
<rect width="1158" height="359" fill="white"/>
<rect x="-103" y="-111" width="1291" height="1322" fill="black"/>
<rect x="284.5" y="38.5" width="774" height="282" rx="12.5" stroke="white" stroke-width="3"/>
<rect x="310.5" y="134.5" width="87" height="87" stroke="black" stroke-width="5"/>
<path d="M357.833 139.667H331C328.967 139.667 327.017 140.474 325.579 141.912C324.141 143.35 323.333 145.3 323.333 147.333V208.667C323.333 210.7 324.141 212.65 325.579 214.088C327.017 215.525 328.967 216.333 331 216.333H377C379.033 216.333 380.984 215.525 382.421 214.088C383.859 212.65 384.667 210.7 384.667 208.667V166.5L357.833 139.667Z" stroke="white" stroke-width="3" stroke-linecap="round" stroke-linejoin="round"/>
<path d="M357.833 139.667V166.5H384.667" stroke="white" stroke-width="3" stroke-linecap="round" stroke-linejoin="round"/>
<rect x="468" y="133" width="90" height="90" stroke="black" stroke-width="2"/>
<path d="M509.167 151.167L490 166.5H474.667V189.5H490L509.167 204.833V151.167Z" stroke="white" stroke-width="3" stroke-linecap="round" stroke-linejoin="round"/>
<path d="M540.101 150.898C547.288 158.087 551.325 167.835 551.325 178C551.325 188.165 547.288 197.913 540.101 205.102M526.57 164.43C530.163 168.024 532.182 172.899 532.182 177.981C532.182 183.063 530.163 187.937 526.57 191.532" stroke="white" stroke-width="3" stroke-linecap="round" stroke-linejoin="round"/>
<rect x="627" y="133" width="90" height="90" stroke="black" stroke-width="2"/>
<path d="M714.167 158.833L687.333 178L714.167 197.167V158.833Z" stroke="white" stroke-width="3" stroke-linecap="round" stroke-linejoin="round"/>
<path d="M679.667 151.167H637.5C633.266 151.167 629.833 154.599 629.833 158.833V197.167C629.833 201.401 633.266 204.833 637.5 204.833H679.667C683.901 204.833 687.333 201.401 687.333 197.167V158.833C687.333 154.599 683.901 151.167 679.667 151.167Z" stroke="white" stroke-width="3" stroke-linecap="round" stroke-linejoin="round"/>
<rect x="786" y="133" width="90" height="90" stroke="black" stroke-width="2"/>
<path d="M792.667 143.5H815.667C819.733 143.5 823.633 145.115 826.509 147.991C829.384 150.867 831 154.767 831 158.833V212.5C831 209.45 829.788 206.525 827.632 204.368C825.475 202.212 822.55 201 819.5 201H792.667V143.5Z" stroke="white" stroke-width="3" stroke-linecap="round" stroke-linejoin="round"/>
<path d="M869.333 143.5H846.333C842.267 143.5 838.367 145.115 835.491 147.991C832.615 150.867 831 154.767 831 158.833V212.5C831 209.45 832.212 206.525 834.368 204.368C836.525 202.212 839.45 201 842.5 201H869.333V143.5Z" stroke="white" stroke-width="3" stroke-linecap="round" stroke-linejoin="round"/>
<rect x="944" y="133" width="90" height="90" stroke="black" stroke-width="2"/>
<path d="M977.5 143.5H962.167C960.133 143.5 958.183 144.308 956.746 145.746C955.308 147.183 954.5 149.133 954.5 151.167V166.5M977.5 143.5H1015.83C1017.87 143.5 1019.82 144.308 1021.25 145.746C1022.69 147.183 1023.5 149.133 1023.5 151.167V166.5M977.5 143.5V212.5M954.5 166.5V204.833C954.5 206.867 955.308 208.817 956.746 210.254C958.183 211.692 960.133 212.5 962.167 212.5H977.5M954.5 166.5H1023.5M1023.5 166.5V204.833C1023.5 206.867 1022.69 208.817 1021.25 210.254C1019.82 211.692 1017.87 212.5 1015.83 212.5H977.5" stroke="white" stroke-width="3" stroke-linecap="round" stroke-linejoin="round"/>
<rect x="119.5" y="110.5" width="87" height="87" stroke="black" stroke-width="5"/>
<path d="M163 115.667V131" stroke="white" stroke-opacity="0.97" stroke-width="3.83333" stroke-linecap="round" stroke-linejoin="round"/>
<path d="M163 177V192.333" stroke="white" stroke-opacity="0.6" stroke-width="3.83333" stroke-linecap="round" stroke-linejoin="round"/>
<path d="M135.898 126.898L146.747 137.747" stroke="white" stroke-opacity="0.95" stroke-width="3.83333" stroke-linecap="round" stroke-linejoin="round"/>
<path d="M179.253 170.253L190.102 181.102" stroke="white" stroke-opacity="0.5" stroke-width="3.83333" stroke-linecap="round" stroke-linejoin="round"/>
<path d="M124.667 154H140" stroke="white" stroke-opacity="0.8" stroke-width="3.83333" stroke-linecap="round" stroke-linejoin="round"/>
<path d="M186 154H201.333" stroke="white" stroke-opacity="0.4" stroke-width="3.83333" stroke-linecap="round" stroke-linejoin="round"/>
<path d="M135.898 181.102L146.747 170.253" stroke="white" stroke-opacity="0.7" stroke-width="3.83333" stroke-linecap="round" stroke-linejoin="round"/>
<path d="M179.253 137.747L190.102 126.898" stroke="white" stroke-opacity="0.3" stroke-width="3.83333" stroke-linecap="round" stroke-linejoin="round"/>
<path d="M118.155 238L116.975 234.02H112.075L110.895 238H109.155L113.435 224.04H115.655L119.935 238H118.155ZM114.615 225.82H114.435L112.475 232.56H116.575L114.615 225.82ZM123.787 226.18H123.647V238H122.127V224.04H124.507L129.267 235.74H129.407V224.04H130.927V238H128.547L123.787 226.18ZM142.14 238L140.96 234.02H136.06L134.88 238H133.14L137.42 224.04H139.64L143.92 238H142.14ZM138.6 225.82H138.42L136.46 232.56H140.56L138.6 225.82ZM146.912 238V224.04H148.592V236.54H155.212V238H146.912ZM158.184 238V236.66H161.664V225.38H158.184V224.04H166.824V225.38H163.344V236.66H166.824V238H158.184ZM179.536 238H169.456V236.5L177.356 225.5H169.796V224.04H179.196V225.54L171.276 236.54H179.536V238ZM182.168 238V236.66H185.648V225.38H182.168V224.04H190.808V225.38H187.328V236.66H190.808V238H182.168ZM195.74 226.18H195.6V238H194.08V224.04H196.46L201.22 235.74H201.36V224.04H202.88V238H200.5L195.74 226.18ZM213.353 236.14H213.253C213.133 236.407 212.993 236.667 212.833 236.92C212.673 237.173 212.466 237.4 212.213 237.6C211.973 237.787 211.679 237.94 211.333 238.06C210.986 238.18 210.573 238.24 210.093 238.24C208.573 238.24 207.439 237.627 206.693 236.4C205.959 235.173 205.593 233.413 205.593 231.12C205.593 228.72 205.999 226.9 206.813 225.66C207.626 224.42 208.879 223.8 210.573 223.8C211.226 223.8 211.793 223.887 212.273 224.06C212.753 224.233 213.159 224.467 213.493 224.76C213.839 225.053 214.126 225.387 214.353 225.76C214.579 226.12 214.766 226.487 214.913 226.86L213.473 227.52C213.353 227.213 213.213 226.927 213.053 226.66C212.906 226.38 212.719 226.14 212.493 225.94C212.279 225.727 212.019 225.56 211.713 225.44C211.406 225.32 211.046 225.26 210.633 225.26C209.513 225.26 208.686 225.68 208.153 226.52C207.633 227.36 207.373 228.48 207.373 229.88V232.04C207.373 232.747 207.426 233.393 207.533 233.98C207.639 234.553 207.813 235.053 208.053 235.48C208.306 235.907 208.626 236.24 209.013 236.48C209.413 236.707 209.899 236.82 210.473 236.82C211.379 236.82 212.086 236.547 212.593 236C213.099 235.453 213.353 234.747 213.353 233.88V232.44H210.413V231.1H214.913V238H213.353V236.14Z" fill="white"/>
</g>
<defs>
<clipPath id="clip0_323_87">
<rect width="1158" height="359" fill="white"/>
</clipPath>
</defs>
</svg>
